<?xml version="1.0" encoding="UTF-8" standalone="no"?>
<!-- Created with Inkscape (http://www.inkscape.org/) -->

<svg
   xmlns:dc="http://purl.org/dc/elements/1.1/"
   xmlns:cc="http://creativecommons.org/ns#"
   xmlns:rdf="http://www.w3.org/1999/02/22-rdf-syntax-ns#"
   xmlns:svg="http://www.w3.org/2000/svg"
   xmlns="http://www.w3.org/2000/svg"
   version="1.1"
   width="892.91339"
   height="208.70078"
   id="svg12313">
  <defs
     id="defs12315" />
  <metadata
     id="metadata12318">
    <rdf:RDF>
      <cc:Work
         rdf:about="">
        <dc:format>image/svg+xml</dc:format>
        <dc:type
           rdf:resource="http://purl.org/dc/dcmitype/StillImage" />
        <dc:title></dc:title>
      </cc:Work>
    </rdf:RDF>
  </metadata>
  <g
     transform="translate(60.840967,-388.66142)"
     id="layer1">
    <g
       transform="matrix(4.9518305,0,0,4.9518305,-1718.7344,-2553.0548)"
       id="g12410">
      <path
         d="m 393.40471,629.05764 0,6.4425 -33.50875,-26.26875 8.22375,0 25.285,19.82625 z"
         id="path11291"
         style="fill:#57c035;fill-opacity:1;fill-rule:nonzero;stroke:none" />
      <path
         d="m 413.57346,629.05764 0,6.4425 -33.50625,-26.26875 8.21625,0 25.29,19.82625 z"
         id="path11293"
         style="fill:#fab60a;fill-opacity:1;fill-rule:nonzero;stroke:none" />
      <path
         d="m 373.23846,629.05764 0,6.4425 -33.50875,-26.26875 8.22,0 25.28875,19.82625 z"
         id="path11295"
         style="fill:#584e4b;fill-opacity:1;fill-rule:nonzero;stroke:none" />
      <path
         d="m 433.74346,629.05764 0,6.4425 -33.5125,-26.26875 8.2225,0 25.29,19.82625 z"
         id="path11297"
         style="fill:#f25c19;fill-opacity:1;fill-rule:nonzero;stroke:none" />
      <path
         d="m 453.90971,629.05764 0,6.4425 -33.5075,-26.26875 8.215,0 25.2925,19.82625 z"
         id="path11299"
         style="fill:#d91920;fill-opacity:1;fill-rule:nonzero;stroke:none" />
      <path
         d="m 474.07471,629.05764 0,6.4425 -33.50875,-26.26875 8.2225,0 25.28625,19.82625 z"
         id="path11301"
         style="fill:#007582;fill-opacity:1;fill-rule:nonzero;stroke:none" />
      <path
         d="m 494.24221,629.05764 0,6.4425 -33.50625,-26.26875 8.22,0 25.28625,19.82625 z"
         id="path11303"
         style="fill:#ee1c99;fill-opacity:1;fill-rule:nonzero;stroke:none" />
      <path
         d="m 514.40846,635.50014 -33.505,-26.26875 8.2175,0 25.2875,19.82625 0,6.4425 z"
         id="path11305"
         style="fill:#4097d9;fill-opacity:1;fill-rule:nonzero;stroke:none" />
      <path
         d="m 338.47596,596.13389 1.23125,0 0,4.60125 c 0,1.46125 -0.475,2.155 -2.085,2.155 -1.62875,0 -2.1025,-0.69375 -2.1025,-2.155 l 0,-4.60125 1.23125,0 0,4.49625 c 0,0.63375 0.0437,1.2675 0.88,1.2675 0.80125,0 0.845,-0.63375 0.845,-1.2675 l 0,-4.49625 z"
         id="path11307"
         style="fill:white;fill-opacity:1;fill-rule:nonzero;stroke:none" />
      <path
         d="m 344.09846,596.13389 1.23125,0 0,6.59875 -1.285,0 -0.95875,-2.34875 c -0.325,-0.78375 -0.58875,-1.58375 -0.88,-2.6225 l -0.0175,0 c 0.045,0.545 0.0975,1.215 0.1325,1.8825 0.035,0.66 0.0612,1.32 0.0612,1.8475 l 0,1.24125 -1.2325,0 0,-6.59875 1.27625,0 0.96,2.4025 c 0.315,0.765 0.57875,1.5475 0.88,2.62125 l 0.0163,0 c -0.0438,-0.59875 -0.0875,-1.24 -0.1225,-1.87375 -0.0362,-0.63375 -0.0613,-1.2675 -0.0613,-1.85625 l 0,-1.29375 z"
         id="path11309"
         style="fill:white;fill-opacity:1;fill-rule:nonzero;stroke:none" />
      <path
         d="m 346.78971,596.13389 1.23125,0 0,6.59875 -1.23125,0 0,-6.59875 z"
         id="path11311"
         style="fill:white;fill-opacity:1;fill-rule:nonzero;stroke:none" />
      <path
         d="m 352.28096,596.13389 1.31875,0 -1.42375,6.59875 -1.64625,0 -1.46125,-6.59875 1.32,0 0.775,4.23125 c 0.07,0.37 0.11375,0.74875 0.14875,1.12625 0.0188,0.17625 0.0525,0.36125 0.0525,0.54625 l 0.0188,0 c 0,-0.185 0.035,-0.37 0.0525,-0.54625 0.035,-0.3775 0.0787,-0.75625 0.15,-1.12625 l 0.695,-4.23125 z"
         id="path11313"
         style="fill:white;fill-opacity:1;fill-rule:nonzero;stroke:none" />
      <path
         d="m 354.59346,602.73264 0,-6.59875 3.4675,0 0,0.9675 -2.235,0 0,1.66375 2.05875,0 0,0.9675 -2.05875,0 0,2.0325 2.235,0 0,0.9675 -3.4675,0 z"
         id="path11315"
         style="fill:white;fill-opacity:1;fill-rule:nonzero;stroke:none" />
      <path
         d="m 360.49846,598.92264 0.9675,0 c 0.405,-0.0263 0.72125,-0.29 0.72125,-0.95 0,-0.73875 -0.30875,-0.8625 -0.775,-0.87125 l -0.91375,0 0,1.82125 z m 0,0.96875 0,2.84125 -1.23125,0 0,-6.59875 2.33125,0 c 1.06375,0 1.87375,0.37 1.87375,1.58375 0,0.72125 -0.18625,1.4775 -1.0125,1.5925 l 0,0.0175 c 0.73,0.0975 0.95,0.56375 0.95,1.19625 0,0.27375 -0.0337,1.8925 0.265,2.085 l 0,0.12375 -1.355,0 c -0.15,-0.4225 -0.12375,-1.23125 -0.1325,-1.67125 -0.009,-0.405 0,-0.95875 -0.42125,-1.0825 -0.335,-0.0975 -0.69625,-0.0875 -1.0475,-0.0875 l -0.22,0 z"
         id="path11317"
         style="fill:white;fill-opacity:1;fill-rule:nonzero;stroke:none" />
      <path
         d="m 364.60721,601.74639 2.12,-4.09125 c 0.105,-0.1925 0.19375,-0.395 0.34375,-0.58 -0.15875,0.0263 -0.3175,0.0263 -0.475,0.0263 l -1.84875,0 0,-0.9675 3.6075,0 0,0.985 -2.12,4.09125 c -0.105,0.19375 -0.1925,0.39625 -0.34375,0.58125 0.15875,-0.0263 0.3175,-0.0263 0.475,-0.0263 l 2.06875,0 0,0.9675 -3.8275,0 0,-0.98625 z"
         id="path11319"
         style="fill:white;fill-opacity:1;fill-rule:nonzero;stroke:none" />
      <path
         d="m 369.57846,596.13389 1.23125,0 0,6.59875 -1.23125,0 0,-6.59875 z"
         id="path11321"
         style="fill:white;fill-opacity:1;fill-rule:nonzero;stroke:none" />
      <path
         d="m 371.82346,596.13389 4.1075,0 0,0.9675 -1.43375,0 0,5.63125 -1.23125,0 0,-5.63125 -1.4425,0 0,-0.9675 z"
         id="path11323"
         style="fill:white;fill-opacity:1;fill-rule:nonzero;stroke:none" />
      <path
         d="m 377.76096,600.09264 1.05625,0 -0.33375,-1.87375 c -0.0612,-0.3075 -0.0888,-0.6075 -0.12375,-0.915 -0.009,-0.14875 -0.0263,-0.29875 -0.0437,-0.44 l -0.0175,0 c -0.0175,0.14125 -0.035,0.29125 -0.0437,0.44 -0.035,0.3075 -0.0625,0.6075 -0.12375,0.915 l -0.37,1.87375 z m -1.8375,2.64 1.575,-6.59875 1.6625,0 1.495,6.59875 -1.32,0 -0.325,-1.67125 -1.4425,0 -0.32625,1.67125 -1.31875,0 z"
         id="path11325"
         style="fill:white;fill-opacity:1;fill-rule:nonzero;stroke:none" />
      <path
         d="m 384.74721,600.63889 0,0.8175 c 0.009,0.2375 0.0962,0.44125 0.39625,0.44125 0.43875,0 0.44875,-0.335 0.44875,-0.69625 l 0,-5.0675 1.23125,0 0,4.8125 c 0,0.44875 0.035,1.09125 -0.36125,1.51375 -0.36,0.38625 -0.905,0.43 -1.50375,0.43 -0.44,0 -0.9325,-0.16625 -1.26625,-0.6775 -0.15,-0.23625 -0.21125,-0.96625 -0.17625,-1.57375 l 1.23125,0 z"
         id="path11327"
         style="fill:white;fill-opacity:1;fill-rule:nonzero;stroke:none" />
      <path
         d="m 388.49471,601.57139 1.16125,0 0,1.16125 -1.16125,0 0,-1.16125 z"
         id="path11329"
         style="fill:white;fill-opacity:1;fill-rule:nonzero;stroke:none" />
      <path
         d="m 392.57721,602.73264 0,-6.59875 3.46625,0 0,0.9675 -2.235,0 0,1.66375 2.06,0 0,0.9675 -2.06,0 0,2.0325 2.235,0 0,0.9675 -3.46625,0 z"
         id="path11331"
         style="fill:white;fill-opacity:1;fill-rule:nonzero;stroke:none" />
      <path
         d="m 397.55721,601.57139 1.16125,0 0,1.16125 -1.16125,0 0,-1.16125 z"
         id="path11333"
         style="fill:white;fill-opacity:1;fill-rule:nonzero;stroke:none" />
      <path
         d="m 403.25971,599.00264 0.66,0 c 0.53625,0 0.8975,-0.22875 0.8975,-1.03 0,-0.75625 -0.29875,-0.87125 -0.995,-0.87125 l -0.5625,0 0,1.90125 z m -1.23125,3.73 0,-6.59875 2.515,0 c 1.18,0 1.54125,0.95 1.54125,1.87375 0,0.56375 -0.15,1.19625 -0.61625,1.56625 -0.3875,0.3075 -0.90625,0.405 -1.38125,0.39625 l -0.8275,0 0,2.7625 -1.23125,0 z"
         id="path11335"
         style="fill:white;fill-opacity:1;fill-rule:nonzero;stroke:none" />
      <path
         d="m 410.13096,596.13389 1.23125,0 0,4.60125 c 0,1.46125 -0.475,2.155 -2.085,2.155 -1.6275,0 -2.1025,-0.69375 -2.1025,-2.155 l 0,-4.60125 1.23125,0 0,4.49625 c 0,0.63375 0.0437,1.2675 0.88,1.2675 0.80125,0 0.845,-0.63375 0.845,-1.2675 l 0,-4.49625 z"
         id="path11337"
         style="fill:white;fill-opacity:1;fill-rule:nonzero;stroke:none" />
      <path
         d="m 414.01971,598.92264 0.96875,0 c 0.40375,-0.0263 0.72125,-0.29 0.72125,-0.95 0,-0.73875 -0.30875,-0.8625 -0.775,-0.87125 l -0.915,0 0,1.82125 z m 0,0.96875 0,2.84125 -1.23125,0 0,-6.59875 2.33125,0 c 1.065,0 1.87375,0.37 1.87375,1.58375 0,0.72125 -0.185,1.4775 -1.01125,1.5925 l 0,0.0175 c 0.73,0.0975 0.94875,0.56375 0.94875,1.19625 0,0.27375 -0.0338,1.8925 0.265,2.085 l 0,0.12375 -1.355,0 c -0.15,-0.4225 -0.1225,-1.23125 -0.13125,-1.67125 -0.01,-0.405 0,-0.95875 -0.4225,-1.0825 -0.335,-0.0975 -0.69625,-0.0875 -1.0475,-0.0875 l -0.22,0 z"
         id="path11339"
         style="fill:white;fill-opacity:1;fill-rule:nonzero;stroke:none" />
      <path
         d="m 418.43721,602.73264 0,-6.59875 1.23125,0 0,2.93 0.0188,0 c 0.1925,-0.52 0.51,-1.1 0.77375,-1.58375 l 0.72125,-1.34625 1.39,0 -1.62875,2.8325 1.7075,3.76625 -1.39,0 -1.16125,-2.605 -0.43125,0.71375 0,1.89125 -1.23125,0 z"
         id="path11341"
         style="fill:white;fill-opacity:1;fill-rule:nonzero;stroke:none" />
      <path
         d="m 425.13221,597.86639 c 0.13125,0.32625 0.23625,0.66 0.28875,1.0125 l 0.0188,0 c 0.0875,-0.51 0.255,-0.88 0.40375,-1.25 l 0.59,-1.495 1.34625,0 -1.74125,3.79125 0,2.8075 -1.2325,0 0,-2.8075 -1.71625,-3.79125 1.34625,0 0.69625,1.7325 z"
         id="path11343"
         style="fill:white;fill-opacity:1;fill-rule:nonzero;stroke:none" />
      <path
         d="m 431.67721,596.13389 1.2325,0 0,6.59875 -1.28625,0 -0.9575,-2.34875 c -0.32625,-0.78375 -0.59,-1.58375 -0.88,-2.6225 l -0.0175,0 c 0.0437,0.545 0.0962,1.215 0.13125,1.8825 0.0362,0.66 0.0612,1.32 0.0612,1.8475 l 0,1.24125 -1.23125,0 0,-6.59875 1.275,0 0.96,2.4025 c 0.31625,0.765 0.58,1.5475 0.88,2.62125 l 0.0175,0 c -0.0437,-0.59875 -0.0888,-1.24 -0.12375,-1.87375 -0.035,-0.63375 -0.0612,-1.2675 -0.0612,-1.85625 l 0,-1.29375 z"
         id="path11345"
         style="fill:white;fill-opacity:1;fill-rule:nonzero;stroke:none" />
      <path
         d="m 436.74471,595.76389 -1.1,0 -0.99375,-0.985 0.985,0 0.5625,0.44 0.555,-0.44 1.00375,0 -1.0125,0.985 z m -2.42,6.96875 0,-6.59875 3.4675,0 0,0.9675 -2.235,0 0,1.66375 2.05875,0 0,0.9675 -2.05875,0 0,2.0325 2.235,0 0,0.9675 -3.4675,0 z"
         id="path11347"
         style="fill:white;fill-opacity:1;fill-rule:nonzero;stroke:none" />
      <path
         d="m 444.26846,596.13389 1.31875,0 -1.42375,6.59875 -1.64625,0 -1.46125,-6.59875 1.32,0 0.775,4.23125 c 0.07,0.37 0.11375,0.74875 0.14875,1.12625 0.0187,0.17625 0.0525,0.36125 0.0525,0.54625 l 0.0187,0 c 0,-0.185 0.035,-0.37 0.0525,-0.54625 0.035,-0.3775 0.0787,-0.75625 0.15,-1.12625 l 0.695,-4.23125 z"
         id="path11349"
         style="fill:white;fill-opacity:1;fill-rule:nonzero;stroke:none" />
      <path
         d="m 451.45596,594.77889 1.3625,0 -1.30125,0.985 -0.88875,0 0.8275,-0.985 z m 0.5725,1.355 1.23125,0 0,4.60125 c 0,1.46125 -0.475,2.155 -2.085,2.155 -1.62875,0 -2.10375,-0.69375 -2.10375,-2.155 l 0,-4.60125 1.2325,0 0,4.49625 c 0,0.63375 0.0438,1.2675 0.88,1.2675 0.8,0 0.845,-0.63375 0.845,-1.2675 l 0,-4.49625 z"
         id="path11351"
         style="fill:white;fill-opacity:1;fill-rule:nonzero;stroke:none" />
      <path
         d="m 457.21846,598.14014 c 0.01,-0.59 -0.0438,-1.17 -0.72125,-1.17 -0.4125,0 -0.6775,0.16625 -0.6775,0.615 0,0.5025 0.3175,0.695 0.70375,0.94125 0.405,0.25625 1.1525,0.74875 1.49625,1.0825 0.42125,0.41375 0.55375,0.81 0.55375,1.38125 0,1.25 -0.82625,1.9 -2.0325,1.9 -1.4775,0 -2.00625,-0.82625 -2.00625,-2.005 l 0,-0.48375 1.2325,0 0,0.38625 c -0.0263,0.6425 0.1675,1.11 0.77375,1.11 0.52,0 0.765,-0.27375 0.765,-0.775 0,-0.3875 -0.175,-0.65125 -0.49125,-0.87125 -0.6425,-0.50125 -1.44375,-0.8625 -1.945,-1.5225 -0.2025,-0.29875 -0.31625,-0.65875 -0.31625,-1.01125 0,-1.12625 0.6325,-1.7425 1.935,-1.7425 1.96125,0 1.90875,1.51375 1.9175,2.165 l -1.1875,0 z"
         id="path11353"
         style="fill:white;fill-opacity:1;fill-rule:nonzero;stroke:none" />
      <path
         d="m 459.40096,596.13389 4.1075,0 0,0.9675 -1.4325,0 0,5.63125 -1.2325,0 0,-5.63125 -1.4425,0 0,-0.9675 z"
         id="path11355"
         style="fill:white;fill-opacity:1;fill-rule:nonzero;stroke:none" />
      <path
         d="m 465.46346,594.77889 1.3625,0 -1.3025,0.985 -0.8875,0 0.8275,-0.985 z m -0.95125,1.355 1.23125,0 0,6.59875 -1.23125,0 0,-6.59875 z"
         id="path11357"
         style="fill:white;fill-opacity:1;fill-rule:nonzero;stroke:none" />
      <path
         d="m 472.60721,596.13389 1.2325,0 0,6.59875 -1.28625,0 -0.9575,-2.34875 c -0.32625,-0.78375 -0.59,-1.58375 -0.88,-2.6225 l -0.0175,0 c 0.0437,0.545 0.0962,1.215 0.1325,1.8825 0.035,0.66 0.06,1.32 0.06,1.8475 l 0,1.24125 -1.23125,0 0,-6.59875 1.27625,0 0.95875,2.4025 c 0.31625,0.765 0.58,1.5475 0.88,2.62125 l 0.0175,0 c -0.0438,-0.59875 -0.0875,-1.24 -0.12375,-1.87375 -0.035,-0.63375 -0.0613,-1.2675 -0.0613,-1.85625 l 0,-1.29375 z"
         id="path11359"
         style="fill:white;fill-opacity:1;fill-rule:nonzero;stroke:none" />
      <path
         d="m 476.61096,600.09264 1.055,0 -0.33375,-1.87375 c -0.0613,-0.3075 -0.0888,-0.6075 -0.12375,-0.915 -0.009,-0.14875 -0.025,-0.29875 -0.0437,-0.44 l -0.0175,0 c -0.0175,0.14125 -0.035,0.29125 -0.0437,0.44 -0.035,0.3075 -0.0625,0.6075 -0.12375,0.915 l -0.36875,1.87375 z m -1.83875,2.64 1.575,-6.59875 1.6625,0 1.495,6.59875 -1.32,0 -0.32375,-1.67125 -1.44375,0 -0.325,1.67125 -1.32,0 z"
         id="path11361"
         style="fill:white;fill-opacity:1;fill-rule:nonzero;stroke:none" />
      <path
         d="m 482.24096,601.76514 c 1.1,0 1.17,-0.58125 1.17,-2.49 0,-1.5575 -0.15875,-2.17375 -0.8975,-2.17375 l -0.80875,0 0,4.66375 0.53625,0 z m -1.76875,0.9675 0,-6.59875 2.56875,0 c 0.3,0 0.89875,0.1325 1.2775,0.7475 0.28,0.4575 0.36,1.18875 0.36,2.27875 0,1.3025 0,2.8075 -1.0125,3.39625 -0.2725,0.15875 -0.60625,0.17625 -0.91375,0.17625 l -2.28,0 z"
         id="path11363"
         style="fill:white;fill-opacity:1;fill-rule:nonzero;stroke:none" />
      <path
         d="m 488.52346,602.73264 0,-6.59875 1.23125,0 0,5.63125 2.2875,0 0,0.9675 -3.51875,0 z"
         id="path11365"
         style="fill:white;fill-opacity:1;fill-rule:nonzero;stroke:none" />
      <path
         d="m 494.49721,600.09264 1.05625,0 -0.335,-1.87375 c -0.0613,-0.3075 -0.0875,-0.6075 -0.1225,-0.915 -0.009,-0.14875 -0.0262,-0.29875 -0.0437,-0.44 l -0.0175,0 c -0.0187,0.14125 -0.035,0.29125 -0.0437,0.44 -0.0362,0.3075 -0.0625,0.6075 -0.12375,0.915 l -0.37,1.87375 z m -1.83875,2.64 1.575,-6.59875 1.6625,0 1.49625,6.59875 -1.32,0 -0.325,-1.67125 -1.4425,0 -0.32625,1.67125 -1.32,0 z"
         id="path11367"
         style="fill:white;fill-opacity:1;fill-rule:nonzero;stroke:none" />
      <path
         d="m 499.79346,601.76514 c 0.25625,0 0.51875,0.0263 0.73875,-0.0712 0.335,-0.14875 0.37875,-0.58 0.37875,-0.915 0,-0.7125 -0.14,-1.01125 -0.90625,-1.01125 l -0.47375,0 0,1.9975 0.2625,0 z m -0.035,-2.965 c 0.29875,0 0.68625,0.0175 0.88,-0.22875 0.11375,-0.1675 0.1325,-0.39625 0.1325,-0.7125 0,-0.4925 -0.10625,-0.74 -0.66875,-0.7575 l -0.57125,0 0,1.69875 0.2275,0 z m -1.46125,3.9325 0,-6.59875 1.98875,0 c 0.52875,0 1.0475,0.035 1.39875,0.48375 0.2825,0.36 0.32625,0.73875 0.32625,1.1875 0,0.5725 -0.12375,1.135 -0.7925,1.3825 l 0,0.0163 c 0.69625,0.0975 0.96,0.6775 0.96,1.53125 0,0.27375 -0.0175,0.545 -0.0888,0.81 -0.26375,0.835 -0.73875,1.1875 -1.61875,1.1875 l -2.17375,0 z"
         id="path11369"
         style="fill:white;fill-opacity:1;fill-rule:nonzero;stroke:none" />
      <path
         d="m 503.43596,602.73264 0,-6.59875 3.46625,0 0,0.9675 -2.235,0 0,1.66375 2.05875,0 0,0.9675 -2.05875,0 0,2.0325 2.235,0 0,0.9675 -3.46625,0 z"
         id="path11371"
         style="fill:white;fill-opacity:1;fill-rule:nonzero;stroke:none" />
      <path
         d="m 509.34846,602.73264 -1.23125,0 0,-6.59875 1.96125,0 0.66,3.06125 c 0.105,0.5025 0.17625,1.0125 0.22875,1.5225 l 0.0175,0 c 0.0613,-0.65125 0.10625,-1.09125 0.19375,-1.5225 l 0.66,-3.06125 1.95375,0 0,6.59875 -1.2325,0 0,-2.07625 c 0,-1.31125 0.0263,-2.6225 0.105,-3.93375 l -0.0163,0 -1.32,6.01 -0.74875,0 -1.29375,-6.01 -0.0438,0 c 0.08,1.31125 0.10625,2.6225 0.10625,3.93375 l 0,2.07625 z"
         id="path11373"
         style="fill:white;fill-opacity:1;fill-rule:nonzero;stroke:none" />
    </g>
  </g>
</svg>
